<svg width="100%" height="100%" viewBox="0 0 22 22" fill="none" xmlns="http://www.w3.org/2000/svg">
<path d="M10.506 0.0601578C10.3899 0.0902367 10.2352 0.141798 10.1622 0.16758C10.0935 0.197659 8.2372 1.25039 6.0372 2.50508C2.4665 4.55039 2.01103 4.82109 1.77041 5.05742C1.47392 5.34961 1.2333 5.78789 1.16025 6.1832C1.13447 6.3293 1.11728 8.09102 1.11728 11.0387C1.11728 16.1176 1.10439 15.8812 1.37939 16.4227C1.67158 16.9984 1.6372 16.977 6.0458 19.4992C8.25009 20.7582 10.1622 21.8324 10.2997 21.884C10.652 22.0129 11.3868 22.0129 11.7392 21.8797C11.9497 21.8023 13.879 20.7152 18.9837 17.7848C19.5208 17.4754 20.045 17.1488 20.1524 17.0629C20.4145 16.8437 20.681 16.4441 20.8013 16.0875L20.9044 15.791V11V6.20899L20.8013 5.9125C20.681 5.55586 20.4145 5.16055 20.1524 4.93711C19.8946 4.71797 12.1302 0.270704 11.7735 0.137501C11.4298 0.00859451 10.8325 -0.0257797 10.506 0.0601578ZM11.4212 0.794924C11.6017 0.850782 14.6138 2.54805 18.713 4.90703C19.4649 5.34102 19.727 5.51719 19.6755 5.55586C19.6669 5.56446 17.7462 6.67735 15.4044 8.03516C13.0626 9.38867 11.1204 10.5145 11.086 10.5359C11.0259 10.5746 10.6177 10.3426 2.95205 5.89531L2.31181 5.52578L2.43213 5.43984C2.7458 5.21211 10.3642 0.880861 10.5704 0.812111C10.8626 0.717579 11.1333 0.708986 11.4212 0.794924ZM10.0763 10.8797L10.6349 11.202L10.6477 16.2121L10.6563 21.2223L10.4974 21.1664C10.2267 21.0676 2.43642 16.5902 2.28603 16.4441C2.20869 16.3668 2.07978 16.182 2.00674 16.0273L1.86924 15.748V11.0215C1.86924 8.42188 1.88213 6.26055 1.89931 6.22188C1.92939 6.15313 2.94775 6.7332 10.0763 10.8797ZM20.1739 11.0215V15.748L20.0579 15.993C19.9977 16.1262 19.8602 16.3195 19.7571 16.4227C19.6239 16.5559 18.481 17.2305 15.6665 18.8418C13.5224 20.0707 11.679 21.1105 11.5759 21.1492L11.3868 21.2266L11.3954 16.2121L11.4083 11.1977L15.7138 8.70117C18.0813 7.33047 20.0321 6.1918 20.0493 6.17461C20.1653 6.06289 20.1739 6.45391 20.1739 11.0215Z" fill="#E4DFE8"/>
<path d="M10.7037 4.42578C10.274 4.51601 9.83575 4.83828 9.66817 5.18632C9.53497 5.46132 9.53067 5.86953 9.65528 6.14882C10.0119 6.94375 11.1764 7.21445 11.9283 6.68164C12.9467 5.95546 12.4525 4.52031 11.1463 4.40859C11.0045 4.3957 10.8068 4.40429 10.7037 4.42578ZM11.2666 5.17773C11.3611 5.19062 11.49 5.25937 11.5803 5.34531C11.7049 5.46132 11.7307 5.52148 11.7307 5.65898C11.7307 5.87382 11.6061 6.0414 11.3697 6.14882C11.1334 6.25625 10.8928 6.25195 10.6307 6.12734C10.2354 5.94257 10.1752 5.55585 10.5018 5.30664C10.6393 5.19921 10.9229 5.11328 11.0432 5.13476C11.0775 5.14335 11.1807 5.16054 11.2666 5.17773Z" fill="#E4DFE8"/>
<path d="M3.33022 8.46054C2.73296 8.61523 2.46225 9.14804 2.65991 9.78827C2.80171 10.2652 3.0896 10.6004 3.54936 10.8324C4.06928 11.0945 4.57631 11.0344 4.88999 10.6734C5.18217 10.3469 5.22085 9.99882 5.02319 9.4703C4.88999 9.11366 4.4603 8.68827 4.10366 8.55507C3.81147 8.44765 3.51928 8.40898 3.33022 8.46054ZM3.90171 9.26835C4.21538 9.41444 4.49897 9.92577 4.38725 10.1363C4.21108 10.4586 3.48491 10.0719 3.35171 9.58202C3.24858 9.19101 3.46772 9.0664 3.90171 9.26835Z" fill="#E4DFE8"/>
<path d="M8.12537 11.391C7.85896 11.4426 7.63123 11.6059 7.48943 11.8465C7.23162 12.2891 7.38631 12.9766 7.85037 13.4406C8.55506 14.1453 9.60349 14.0551 9.8656 13.2687C10.0547 12.693 9.64217 11.8723 8.99334 11.5457C8.83006 11.4641 8.36599 11.3266 8.32303 11.348C8.31873 11.3523 8.22849 11.3695 8.12537 11.391ZM8.73123 12.2418C9.05779 12.448 9.26404 12.8906 9.12654 13.0926C9.06638 13.1871 9.03631 13.2 8.86873 13.1785C8.50779 13.1398 8.15545 12.7875 8.09099 12.4051C8.04373 12.1 8.37459 12.0141 8.73123 12.2418Z" fill="#E4DFE8"/>
<path d="M3.10685 13.6855C2.70294 13.8875 2.51817 14.3129 2.617 14.7855C2.73302 15.3141 3.08966 15.7566 3.59239 15.993C3.84161 16.109 3.90177 16.1219 4.20255 16.109C4.61075 16.0875 4.82989 15.9672 5.01466 15.6535C5.27247 15.2109 5.11778 14.5234 4.65372 14.0594C4.20255 13.6082 3.56231 13.4535 3.10685 13.6855ZM4.0006 14.4633C4.30997 14.6781 4.51622 15.1594 4.36153 15.3098C4.09513 15.5805 3.42911 15.1336 3.32599 14.618C3.26153 14.2957 3.63536 14.2098 4.0006 14.4633Z" fill="#E4DFE8"/>
<path d="M7.97078 16.5644C7.72586 16.659 7.48953 16.9082 7.40789 17.1574C7.20593 17.759 7.63992 18.584 8.33172 18.9148C8.56804 19.0309 8.66687 19.0523 8.91609 19.0523C9.47039 19.0523 9.83562 18.7387 9.90867 18.2016C9.96453 17.8105 9.68093 17.1918 9.29422 16.8695C8.92898 16.5644 8.33601 16.4269 7.97078 16.5644ZM8.58523 17.2949C8.92468 17.441 9.25125 17.9266 9.1739 18.1758C9.09656 18.425 8.68836 18.3605 8.38328 18.0555C8.09539 17.7633 8.00086 17.4195 8.17273 17.2992C8.29304 17.2133 8.38328 17.2133 8.58523 17.2949Z" fill="#E4DFE8"/>
<path d="M18.1287 8.47773C17.3295 8.70117 16.7408 9.60781 16.9298 10.3125C16.9986 10.5746 17.3123 10.8883 17.5744 10.957C18.3263 11.159 19.233 10.5102 19.4177 9.63789C19.5767 8.86875 18.8978 8.26289 18.1287 8.47773ZM18.6529 9.24258C18.7517 9.34141 18.7388 9.4918 18.6013 9.7582C18.4295 10.1063 17.9783 10.3512 17.7506 10.2223C17.3681 10.0074 17.9439 9.16953 18.4896 9.15234C18.5283 9.15234 18.6013 9.19102 18.6529 9.24258Z" fill="#E4DFE8"/>
<path d="M15.9199 12.5168C15.2281 12.7488 14.7555 13.3031 14.7039 13.952C14.6781 14.2871 14.764 14.5363 14.9832 14.7512C15.4129 15.1852 16.1906 15.0949 16.7406 14.5492C17.0457 14.2399 17.1961 13.909 17.2176 13.4965C17.2348 13.1871 17.2305 13.157 17.093 12.9336C16.9898 12.7617 16.8953 12.6758 16.7449 12.5941C16.5 12.4695 16.1648 12.4395 15.9199 12.5168ZM16.4355 13.2516C16.5387 13.3246 16.5301 13.5309 16.414 13.7715C16.3023 14.0035 16.139 14.1453 15.8726 14.2484C15.6922 14.3172 15.6621 14.3172 15.559 14.2613C15.2797 14.1066 15.5031 13.5352 15.9371 13.3117C16.1906 13.1785 16.3152 13.1613 16.4355 13.2516Z" fill="#E4DFE8"/>
<path d="M13.6771 16.5602C13.0068 16.7793 12.5427 17.368 12.5126 18.0469C12.4997 18.3477 12.5083 18.382 12.6415 18.6055C13.2431 19.5981 14.9404 18.8418 15.0263 17.5399C15.0435 17.2863 15.0349 17.2262 14.9232 17.0156C14.7556 16.6977 14.5021 16.5387 14.1283 16.5172C13.9693 16.5086 13.7845 16.5258 13.6771 16.5602ZM14.24 17.2992C14.399 17.4539 14.2701 17.832 13.9693 18.1027C13.5095 18.5152 13.0755 18.3348 13.2904 17.8192C13.4665 17.3981 14.0337 17.0887 14.24 17.2992Z" fill="#E4DFE8"/>
</svg>
