<svg width="28" height="28" viewBox="0 0 28 28" fill="none" xmlns="http://www.w3.org/2000/svg">
<path d="M6.93178 2.63846C6.71296 2.71442 6.47181 2.94233 6.36463 3.1747C6.28425 3.34451 6.27979 3.55006 6.27979 7.34841C6.27979 10.253 6.29318 11.3881 6.33337 11.5132C6.40483 11.7679 6.64597 12.0226 6.89605 12.1209C7.08361 12.1924 7.26224 12.2014 8.70467 12.2014H10.3079L10.3927 12.0941C10.5267 11.9288 10.4999 11.7545 10.3034 11.54C10.0354 11.2451 9.96846 11.0842 9.964 10.7267C9.964 10.4631 9.98632 10.3782 10.0935 10.1771C10.3257 9.76149 10.7187 9.55593 11.1965 9.60061C11.8351 9.65871 12.2638 10.186 12.2058 10.8429C12.179 11.1378 12.112 11.2808 11.8664 11.5624C11.6833 11.7679 11.6476 11.893 11.728 12.045C11.8128 12.2058 12.0048 12.2237 13.6303 12.2237H15.2112V13.466V14.7127L14.979 14.6323C14.1439 14.3419 13.1391 14.7887 12.7685 15.6109C12.6122 15.9506 12.5809 16.4823 12.6881 16.8488C12.9739 17.8453 14.0501 18.4039 15.0192 18.0598L15.2023 17.9927L15.2201 19.2082C15.2335 20.3611 15.238 20.4326 15.3318 20.6114C15.4524 20.8348 15.6935 21.0404 15.9213 21.1119C16.0463 21.1476 17.2208 21.161 20.0833 21.161C23.8479 21.161 24.0846 21.1565 24.2543 21.0761C24.482 20.9733 24.75 20.6784 24.808 20.4594C24.8393 20.3611 24.8571 19.7847 24.8571 19.0473V17.8051L24.7455 17.6978C24.5981 17.5459 24.4016 17.5503 24.2811 17.7023C24.1917 17.8185 24.1873 17.8766 24.1873 19.0473V20.2717L24.0756 20.379L23.9685 20.4907H20.0565C17.587 20.4907 16.1133 20.4728 16.0597 20.446C15.8989 20.3611 15.8811 20.1645 15.8811 18.6318C15.8811 17.1973 15.8766 17.1348 15.7917 17.0499C15.6488 16.9069 15.4613 16.9337 15.2425 17.1348C14.8941 17.452 14.5547 17.5503 14.1439 17.452C13.6437 17.3314 13.2909 16.88 13.2909 16.3617C13.2909 15.3339 14.4699 14.8423 15.2201 15.5529C15.4657 15.7852 15.631 15.812 15.7828 15.6512C15.8811 15.5484 15.8811 15.5305 15.8811 13.886V12.2237H17.1449H18.4131L18.3238 12.4784C18.1898 12.8761 18.23 13.4168 18.4176 13.7967C18.5917 14.1497 18.9535 14.5072 19.3063 14.6725C19.5385 14.7798 19.6144 14.7932 20.0565 14.7932C20.5209 14.7932 20.5656 14.7842 20.8425 14.6502C21.5704 14.2927 21.9902 13.4302 21.8115 12.6661C21.7758 12.5097 21.7267 12.3444 21.7088 12.2997C21.6776 12.2282 21.7535 12.2237 22.9324 12.2237H24.1873V14.458V16.6968L24.2989 16.8041C24.4374 16.9471 24.6071 16.9471 24.7455 16.8041L24.8571 16.6968V10.0743C24.8571 4.96216 24.8437 3.41154 24.8035 3.26854C24.7276 3.02276 24.3972 2.68314 24.165 2.62058C24.0399 2.58484 21.5257 2.57143 15.5461 2.57143C8.48138 2.5759 7.07915 2.58484 6.93178 2.63846ZM15.2201 4.913C15.2335 6.4815 15.238 6.58874 15.3184 6.67812C15.4613 6.83899 15.6667 6.80324 15.9257 6.57087C16.4437 6.1106 17.1136 6.14635 17.5646 6.65577C18.2077 7.38416 17.6807 8.51473 16.7072 8.51473C16.3857 8.51473 16.1624 8.42089 15.8677 8.16618C15.6354 7.96509 15.5908 7.95168 15.4122 8.03212C15.2291 8.11702 15.2023 8.30024 15.2201 9.52912C15.2335 10.6195 15.238 10.6597 15.3318 10.7535C15.4524 10.8742 15.6667 10.8831 15.7917 10.7714C15.8766 10.6954 15.8811 10.6373 15.8811 9.86873C15.8811 9.30568 15.8945 9.05097 15.9302 9.05097C15.957 9.05097 16.0909 9.08225 16.2294 9.12247C16.6 9.22972 17.1225 9.19397 17.4664 9.02863C18.6096 8.48345 18.8731 6.99986 17.9799 6.10613C17.5512 5.67714 16.9216 5.48946 16.3678 5.62352C16.2115 5.65927 16.0374 5.70395 15.9838 5.72183L15.8811 5.75311V4.49742V3.24173H19.9225H23.9685L24.0756 3.35344L24.1873 3.46069V7.50929V11.5534H22.5126C20.8961 11.5534 20.8335 11.5579 20.7487 11.6428C20.5968 11.7947 20.6326 11.9779 20.8603 12.2326C21.5391 12.9879 21.0524 14.1408 20.0565 14.1452C19.4045 14.1452 18.9177 13.6581 18.9177 13.0057C18.9177 12.684 19.0115 12.4606 19.2661 12.1656C19.476 11.9243 19.4938 11.8394 19.3598 11.6696L19.2705 11.5534H15.9838C13.3758 11.5534 12.7059 11.54 12.7283 11.4953C12.9426 10.9859 12.9382 10.4452 12.7238 9.97598C12.5318 9.56933 12.2772 9.30568 11.8709 9.10459C11.5449 8.94819 11.5091 8.93925 11.0849 8.93925C10.6696 8.93925 10.6115 8.95266 10.3436 9.07778C10.1828 9.15375 9.97293 9.28781 9.87468 9.37718C9.53529 9.67211 9.27181 10.2664 9.27181 10.7267C9.27181 10.8921 9.35219 11.2764 9.42811 11.473C9.45937 11.5489 9.39238 11.5534 8.39207 11.5534C7.28457 11.5534 7.07468 11.5266 6.9943 11.3747C6.9675 11.321 6.94964 9.83745 6.94964 7.35735V3.42494L7.06575 3.33557C7.18632 3.24173 7.20419 3.24173 11.1965 3.24173H15.2067L15.2201 4.913Z" fill="white"/>
<path d="M5.35539 12.5142C4.82844 12.6572 4.3908 13.0147 4.15411 13.4973C4.03354 13.7431 4.02461 13.8056 4.02461 14.257C4.02461 14.6949 4.03801 14.7753 4.14072 14.9988C4.2077 15.1373 4.33721 15.3339 4.42652 15.4367C4.52477 15.5439 4.57836 15.6378 4.55603 15.6601C4.5337 15.6825 4.04694 15.8925 3.47533 16.1383C2.56432 16.5226 2.41249 16.5985 2.26065 16.7639C2.06416 16.9784 1.97485 17.2465 2.00611 17.5235C2.02397 17.7112 4.94008 24.6421 5.14104 24.9907C5.31073 25.2722 5.601 25.4286 5.96719 25.4286C6.24853 25.4286 6.36017 25.3839 9.62907 23.9897C13.7643 22.229 13.5098 22.3408 13.6616 22.1978C13.8626 22.0101 13.9742 21.7509 13.9787 21.4738C13.9787 21.2549 13.9117 21.0672 13.3847 19.8204C12.8131 18.4664 12.6747 18.2117 12.5095 18.2117C12.3532 18.2117 12.2236 18.3234 12.1388 18.5201C12.0272 18.7882 11.8083 19.0384 11.5761 19.1635C11.2903 19.311 10.7902 19.3021 10.5177 19.1412C10.1248 18.9088 9.93274 18.5826 9.93274 18.1447C9.93274 17.3269 10.6785 16.8175 11.4779 17.0901C11.6922 17.1616 11.7905 17.175 11.8753 17.1437C11.9959 17.0946 12.0852 16.9694 12.0852 16.8443C12.0852 16.7728 11.0983 14.4 10.9152 14.0335C10.7187 13.6403 10.4284 13.4571 10.0087 13.4615C9.77198 13.4615 9.62461 13.5152 8.69127 13.9129L7.64183 14.3642L7.58824 14.0514C7.48553 13.4347 7.1506 12.9476 6.64598 12.6795C6.21281 12.4516 5.78856 12.398 5.35539 12.5142ZM6.12796 13.1845C6.73976 13.3632 7.07022 14.0112 6.8648 14.6279C6.75316 14.9541 6.74869 15.0345 6.838 15.1596C6.97644 15.3607 7.05236 15.3384 8.5573 14.7038C10.0622 14.0648 10.1426 14.0425 10.2766 14.2525C10.3391 14.3553 11.1474 16.2544 11.1474 16.3036C11.1474 16.3215 11.0715 16.3349 10.9777 16.3349C10.5579 16.3349 10.0712 16.5628 9.74072 16.9203C8.78505 17.9436 9.3254 19.6193 10.7098 19.9143C11.2233 20.026 11.8351 19.8651 12.2192 19.521L12.4425 19.3199L12.5139 19.4898C12.5541 19.5881 12.7551 20.0617 12.9605 20.5488C13.349 21.4604 13.3713 21.5721 13.2106 21.7107C13.1123 21.7911 6.16368 24.7449 6.00738 24.7717C5.93147 24.7806 5.85555 24.7538 5.77517 24.6823C5.69478 24.6108 5.23482 23.5696 4.16305 21.0359C3.33689 19.0876 2.66257 17.452 2.66257 17.4029C2.66257 17.3537 2.70722 17.2688 2.76528 17.2152C2.81887 17.1616 3.45746 16.8667 4.18091 16.5628C4.90435 16.2589 5.54295 15.9685 5.601 15.9193C5.69925 15.8255 5.73497 15.611 5.66352 15.4992C5.6412 15.468 5.50722 15.3831 5.35986 15.3116C4.89542 15.0881 4.67214 14.744 4.67214 14.2614C4.67214 13.7654 4.98474 13.3275 5.4447 13.18C5.69478 13.1041 5.86001 13.1041 6.12796 13.1845Z" fill="white"/>
</svg>
