<svg width="28" height="28" viewBox="0 0 28 28" fill="none" xmlns="http://www.w3.org/2000/svg">
<path d="M15.4219 0.656221C14.9789 0.710909 14.5907 0.853096 14.2297 1.09372L13.9125 1.307L13.5516 1.12107C12.7969 0.743721 11.911 0.743721 11.1125 1.12107C10.6477 1.33982 10.15 1.80466 9.95863 2.19841L9.83832 2.44997L9.59223 2.34607C9.27504 2.20388 8.68988 2.0781 8.33988 2.0781C7.20785 2.0781 6.04301 2.78357 5.57269 3.74607C5.39223 4.11794 5.38676 4.14528 5.38676 4.80153V5.47419L5.06957 5.80232C4.5391 6.34372 4.31488 7.01091 4.42973 7.66716C4.60473 8.6406 5.45785 9.42263 6.51332 9.59216C6.8141 9.63591 6.89066 9.66872 6.89066 9.74528C6.89066 9.92028 7.10941 10.4179 7.30082 10.675C7.63441 11.1289 8.1977 11.4625 8.77738 11.5609C8.9852 11.5937 8.97973 11.5883 8.62426 11.3914C8.13207 11.1179 7.69457 10.675 7.47582 10.2265C7.31176 9.89841 7.30082 9.83278 7.30082 9.32419C7.30082 8.84294 7.31723 8.73903 7.44848 8.46013C7.63988 8.05544 7.87504 7.75466 8.22504 7.47575C8.42191 7.32263 8.46566 7.27341 8.36723 7.30075C8.08832 7.38278 7.79848 7.56325 7.54145 7.80388C7.15316 8.16482 6.9891 8.482 6.86879 9.08357C6.83598 9.22028 6.83051 9.22575 6.5516 9.182C5.90082 9.0781 5.25004 8.60778 4.98207 8.03903C4.86723 7.79841 4.83988 7.65622 4.83988 7.3281C4.84535 6.75388 4.98207 6.47497 5.49613 5.98825L5.89535 5.60544L5.80785 5.23357C5.47973 3.86638 6.73207 2.5156 8.32348 2.5156C8.82113 2.5156 9.15473 2.59216 9.5977 2.81638C9.88207 2.96403 9.99145 2.99138 10.068 2.94763C10.1282 2.92028 10.1719 2.86013 10.1719 2.82185C10.1719 2.65778 10.5219 2.07263 10.7407 1.87028C11.5118 1.15935 12.7477 1.06091 13.6172 1.6406C13.8961 1.82653 14.011 1.84294 14.1149 1.71169C14.1586 1.66247 14.3336 1.53122 14.5086 1.41638C15.6625 0.667159 17.3196 1.14294 17.7789 2.35153C17.9375 2.75622 17.9211 2.75075 18.6102 2.62497C19.3375 2.48825 20.0977 2.75075 20.6063 3.30857C20.8797 3.60388 20.9454 3.75153 21.093 4.3695C21.1368 4.5445 21.1586 4.56091 21.5196 4.64841C22.225 4.81794 22.7391 5.18435 23.0016 5.72028C23.2914 6.31091 23.2204 6.98357 22.8102 7.52497C22.4766 7.97341 21.6563 8.43825 21.6563 8.18122C21.6563 7.98435 21.35 7.47575 21.0766 7.21872C20.7868 6.94528 20.1961 6.61716 19.9938 6.61716C19.9282 6.61716 20.0102 6.69919 20.2125 6.82497C20.6118 7.08747 20.9454 7.44294 21.1477 7.83122C21.2844 8.09372 21.3008 8.17575 21.3008 8.66794C21.3008 9.17653 21.2899 9.24216 21.1204 9.58122C20.7266 10.3851 19.8188 10.9156 18.7743 10.9539C18.2875 10.9703 18.5008 11.0633 19.0914 11.0906C19.8735 11.1289 20.5188 10.8828 21.0657 10.3304C21.4321 9.9695 21.6344 9.57028 21.7219 9.06169C21.7766 8.71716 21.7821 8.71169 22.0172 8.62419C22.5914 8.41091 23.1766 7.87497 23.4118 7.35544C23.461 7.23513 23.5375 6.98357 23.5704 6.79216C23.7672 5.70388 22.9469 4.56638 21.7493 4.26013C21.5141 4.20544 21.4977 4.18903 21.4375 3.94841C21.2352 3.1445 20.486 2.45544 19.5836 2.24216C19.3977 2.19841 19.086 2.182 18.736 2.19841L18.1836 2.22575L18.0633 1.97419C17.6313 1.08278 16.5102 0.519503 15.4219 0.656221Z" fill="white"/>
<path d="M12.6056 2.59221C12.2283 2.75627 11.9822 3.21565 12.0478 3.63127L12.0751 3.81174L11.8509 3.6969C11.5173 3.52737 10.8447 3.5383 10.4892 3.7133C9.65796 4.11799 9.27515 5.08596 9.62515 5.88987C9.69077 6.04299 9.79468 6.21252 9.84937 6.26721C9.95327 6.36018 9.95327 6.36018 9.87124 6.12502C9.82749 5.99924 9.78921 5.7258 9.78921 5.52346C9.78921 4.86174 10.2267 4.2219 10.8173 4.02502C11.3095 3.85549 11.9767 3.93752 12.365 4.21096C12.5509 4.34768 12.5673 4.31487 12.4142 4.11799C12.1955 3.83362 12.3486 3.23205 12.6931 3.02424C12.9611 2.86018 13.1744 2.83283 13.4697 2.92033C13.7486 3.00237 13.7541 3.00237 13.672 2.8383C13.5298 2.5758 12.9556 2.43908 12.6056 2.59221Z" fill="white"/>
<path d="M17.9595 3.87737C17.8337 3.93205 17.6915 4.03596 17.6423 4.10705C17.5384 4.26018 17.5274 4.35862 17.6259 4.27659C17.6642 4.24377 17.8064 4.18909 17.9431 4.15627C18.6321 3.98127 19.2884 4.60471 19.1735 5.32659C19.1407 5.52346 19.1462 5.5344 19.2282 5.4633C19.4689 5.26096 19.5345 4.76877 19.3649 4.40237C19.1134 3.86096 18.5009 3.63127 17.9595 3.87737Z" fill="white"/>
<path d="M9.95316 7.1914C9.90394 7.25156 9.89301 7.42656 9.90941 7.81484C9.94222 8.48749 10.0899 8.83749 10.5219 9.22577C10.9813 9.6414 11.1399 9.67968 12.5672 9.67968H13.7813V10.418V11.1562H13.6282C13.5461 11.1562 13.4477 11.1836 13.4094 11.2219C13.3602 11.2711 13.3438 11.8672 13.3438 13.5625V15.8375L13.1797 15.8976L13.0157 15.9578V17.2375V18.5117L12.6219 18.7031C12.4032 18.807 12.2008 18.9055 12.1735 18.9164C12.1461 18.9273 12.1407 18.55 12.1625 18.0141C12.2446 16.0289 11.9493 14.8039 11.211 14.0547C10.8391 13.6719 10.5766 13.5461 10.1118 13.5187C9.66879 13.4914 9.36801 13.6062 9.0016 13.9453C8.74457 14.1805 8.44379 14.6398 8.31254 14.9844C8.27426 15.0883 8.22504 15.1922 8.20863 15.2141C8.18676 15.2359 8.00082 15.2086 7.78754 15.1539C7.37191 15.0445 7.21879 15.0719 7.21879 15.2578C7.21879 15.3125 7.27894 15.4055 7.35004 15.4601L7.47582 15.5586L7.18598 17.1992C7.00551 18.2273 6.91801 18.8672 6.94535 18.9219C7.00004 19.0312 7.80941 19.2281 7.88051 19.157C7.90785 19.1297 8.17582 18.3969 8.47113 17.5219C8.99066 16.007 9.01801 15.9414 9.16019 15.9141C9.24222 15.8976 9.34066 15.843 9.37347 15.7883C9.45551 15.657 9.26957 15.4984 8.97972 15.4492C8.60238 15.3891 8.59691 15.3617 8.80472 14.9242C9.12738 14.257 9.53754 13.9234 10.0352 13.9234C10.7133 13.9234 11.293 14.5742 11.6102 15.6898C11.7196 16.0726 11.7305 16.2258 11.725 17.675L11.7196 19.2445L11.386 19.6C10.3305 20.732 9.98597 22.307 10.4727 23.7727C10.686 24.418 10.9977 24.9047 11.5446 25.4351L12.0203 25.9109L11.8508 25.9437C11.5828 25.9984 11.2821 26.2281 11.1563 26.4687C11.0086 26.7641 11.0032 27.2617 11.1508 27.3437C11.2219 27.3766 12.3485 27.3984 14.4211 27.3984C17.8719 27.3984 17.8282 27.4039 17.8282 27.0922C17.8282 26.5781 17.5328 26.1351 17.0899 25.982L16.811 25.8891L17.2266 25.5008L17.6422 25.1125L18.2493 25.0523C19.7149 24.9047 20.8633 24.407 21.7821 23.5211C22.5477 22.7828 22.9961 21.957 23.1657 20.9945C23.4391 19.3922 22.6516 17.9211 21.2899 17.5C20.8633 17.3687 20.5352 17.3633 20.0977 17.4727C19.7149 17.5766 19.4633 17.7133 19.168 18.0031L18.9438 18.2109L18.7305 17.9922C18.6157 17.8719 18.4789 17.7734 18.4352 17.7734C18.386 17.7734 18.0414 18.0852 17.6586 18.4625L16.9696 19.1516L16.6305 18.9273C16.4446 18.807 16.1821 18.6703 16.0453 18.6156L15.8047 18.5227V17.243V15.9687L15.668 15.9031L15.5313 15.843V13.5844C15.5313 11.1016 15.5368 11.1562 15.1977 11.1562H15.0391V10.4234V9.68515L16.3407 9.66874C17.5657 9.65234 17.6532 9.64687 17.8938 9.52656C18.5282 9.21484 18.8727 8.64609 18.911 7.86406C18.9219 7.60156 18.9219 7.32265 18.9 7.24609L18.8672 7.10937H14.443C10.5602 7.10937 10.0133 7.12031 9.95316 7.1914ZM18.4789 7.91874C18.4625 8.27968 18.4297 8.38906 18.293 8.61874C18.0852 8.95234 17.6586 9.22031 17.2594 9.26953C17.1063 9.28593 15.7118 9.29687 14.1641 9.28593C11.3696 9.26953 11.3477 9.26953 11.118 9.14921C10.5985 8.87031 10.336 8.4164 10.336 7.80937V7.49218H14.4157H18.4953L18.4789 7.91874ZM14.6016 10.418V11.1562H14.4102H14.2188V10.418V9.67968H14.4102H14.6016V10.418ZM15.0938 13.7266V15.8594H14.4102H13.7266V13.7266V11.5937H14.4102H15.0938V13.7266ZM8.27972 15.7062C8.40004 15.7391 8.52582 15.7883 8.55316 15.8102C8.58051 15.8375 8.3891 16.4719 8.11566 17.2758C7.67269 18.5773 7.61801 18.7031 7.50863 18.7031C7.4266 18.7031 7.38285 18.6703 7.38285 18.6047C7.38285 18.5555 7.49222 17.8773 7.62894 17.1008C7.76566 16.3242 7.87504 15.6789 7.87504 15.6625C7.87504 15.6242 8.05004 15.6406 8.27972 15.7062ZM15.4219 17.5547V18.8125L15.575 18.8781C17.1555 19.5125 18.0414 20.6773 18.1399 22.2305C18.1891 23.0289 17.9102 24.0789 17.5164 24.5547L17.4016 24.6859L16.8383 24.6258C15.3672 24.4562 14.1313 23.882 13.2672 22.9687C12.5125 22.1703 12.168 21.257 12.1352 20.0156L12.1243 19.4961L12.4086 19.3047C12.5618 19.1953 12.8407 19.0531 13.0211 18.9766C13.2016 18.9055 13.3711 18.807 13.4039 18.7523C13.4313 18.6976 13.4532 18.1234 13.4532 17.4781V16.2969H14.4375H15.4219V17.5547ZM21.4703 18.0195C22.7391 18.643 23.1711 20.3492 22.4493 21.9133C21.8477 23.2148 20.5899 24.1719 19.0422 24.5C18.3149 24.6531 17.9703 24.6859 18.0086 24.5984C18.025 24.5601 18.1289 24.3305 18.2328 24.0898C18.4243 23.6523 18.5938 22.8867 18.5938 22.4492C18.5938 22.0773 18.4407 21.2953 18.2985 20.9508L18.1672 20.6281L18.9274 19.8734C19.3485 19.4578 19.6875 19.0805 19.6875 19.0422C19.6875 19.0039 19.5891 18.8672 19.4688 18.7359C19.2555 18.5008 19.2555 18.5008 19.3594 18.3859C19.7477 17.9703 20.1141 17.8226 20.7047 17.8445C21.0602 17.8609 21.2133 17.8937 21.4703 18.0195ZM18.8125 18.6758L19.168 19.0312L18.5664 19.6383L17.9649 20.2398L17.8555 20.0867C17.7953 20.0047 17.6422 19.8242 17.5164 19.6875L17.2868 19.4414L17.8446 18.8781C18.1508 18.5719 18.4133 18.3203 18.4297 18.3203C18.4461 18.3203 18.6211 18.4789 18.8125 18.6758ZM11.9274 21.4648C12.4524 23.2312 14.0875 24.5547 16.2477 24.9648C16.4938 25.0086 16.7782 25.0469 16.8821 25.0469C16.986 25.0469 17.0625 25.0687 17.0516 25.0961C17.0188 25.1945 16.4883 25.5937 16.1766 25.7578L15.8594 25.9273L14.3664 25.9109L12.8735 25.8945L12.5508 25.7031C12.1297 25.457 11.386 24.7242 11.1727 24.3359C11.0743 24.1719 10.9321 23.8383 10.85 23.5977C10.7133 23.2094 10.6969 23.0836 10.6969 22.4492C10.6969 21.8094 10.7133 21.6891 10.8555 21.2789C11.0032 20.8414 11.3149 20.2945 11.561 20.0266L11.6758 19.8953L11.7414 20.4914C11.7797 20.8141 11.8618 21.2516 11.9274 21.4648ZM16.9532 26.3758C17.1391 26.4414 17.3907 26.7367 17.3907 26.8844C17.3907 26.95 16.8766 26.9609 14.4102 26.9609C12.7696 26.9609 11.4297 26.95 11.4297 26.9336C11.4297 26.8461 11.5883 26.5398 11.6703 26.4742C11.7196 26.4359 11.8399 26.3812 11.9383 26.3594C12.2391 26.2828 16.7344 26.2992 16.9532 26.3758Z" fill="white"/>
</svg>
